<svg xmlns="http://www.w3.org/2000/svg" width="89.337" height="85.615" viewBox="0 0 89.337 85.615"><defs><style>.a{fill:#607d8b;}.b{fill:#ffc107;}</style></defs><path class="a" d="M50.252,277.4A12.117,12.117,0,0,1,57.7,266.237v-.931A14.716,14.716,0,0,1,59.152,259a17.594,17.594,0,0,0-9.831-3H17.681A17.7,17.7,0,0,0,0,273.681V286.71A2.793,2.793,0,0,0,2.792,289.5h47.46Zm0,0" transform="translate(0 -211.331)"/><path class="a" d="M122.556,18.612A18.612,18.612,0,1,1,103.944,0,18.612,18.612,0,0,1,122.556,18.612Zm0,0" transform="translate(-70.443)"/><path class="b" d="M346.987,341.332H326.514A6.521,6.521,0,0,0,320,347.847v13.028a6.521,6.521,0,0,0,6.514,6.515h20.474a6.521,6.521,0,0,0,6.514-6.515V347.847A6.521,6.521,0,0,0,346.987,341.332Zm0,0" transform="translate(-264.164 -281.774)"/><path class="a" d="M371.974,256a9.316,9.316,0,0,0-9.306,9.306v5.584h5.584v-5.584a3.722,3.722,0,1,1,7.444,0v5.584h5.584v-5.584A9.316,9.316,0,0,0,371.974,256Zm0,0" transform="translate(-299.387 -211.332)"/></svg>